<svg xmlns="http://www.w3.org/2000/svg" width="152.661" height="37.979" viewBox="0 0 152.661 37.979">
  <g id="Group_4" data-name="Group 4" transform="translate(-167.227 -217.975)">
    <g id="Group_1" data-name="Group 1" transform="translate(167.227 217.975)">
      <path id="Path_1" data-name="Path 1" d="M207.319,235.081h-8.246V239.1h2.113v8.948a3.892,3.892,0,0,1-3.889,3.887H175.132a3.89,3.89,0,0,1-3.886-3.887V225.883a3.891,3.891,0,0,1,3.886-3.889H197.3a3.893,3.893,0,0,1,3.889,3.889v5.183h4.019v-5.183a7.917,7.917,0,0,0-7.908-7.908H175.132a7.915,7.915,0,0,0-7.905,7.908v22.165a7.915,7.915,0,0,0,7.905,7.906H197.3a7.916,7.916,0,0,0,7.908-7.906V239.1h2.113Z" transform="translate(-167.227 -217.975)" fill="#21244e"/>
      <path id="Path_2" data-name="Path 2" d="M202.293,241.594V237.36a3.526,3.526,0,0,0-3.379-3.657h-14.76a1.262,1.262,0,0,0-1.262,1.262v16.8a1.262,1.262,0,0,0,1.262,1.262h14.759a3.527,3.527,0,0,0,3.379-3.658v-4.233c0-.615-.682-1.169-1.075-1.695a.127.127,0,0,1,0-.154C201.574,242.819,202.293,242.206,202.293,241.594Zm-3.713,7.417H186.606V245.5H198.58Zm0-7.779H186.606v-3.51H198.58Z" transform="translate(-173.604 -224.377)" fill="#3d6db3"/>
    </g>
    <g id="Group_3" data-name="Group 3" transform="translate(217.043 229.739)">
      <g id="Group_2" data-name="Group 2">
        <path id="Path_3" data-name="Path 3" d="M261.239,245.832a3.637,3.637,0,0,1-.167,1.039,3.007,3.007,0,0,1-1.527,1.818,3.15,3.15,0,0,1-1.481.318h-9.946a1.337,1.337,0,0,1-.523-.1,1.269,1.269,0,0,1-.7-.7,1.339,1.339,0,0,1-.1-.523V235.877a1.315,1.315,0,0,1,.1-.513,1.351,1.351,0,0,1,.278-.424,1.254,1.254,0,0,1,.419-.282,1.337,1.337,0,0,1,.523-.1h8.768a3.511,3.511,0,0,1,1.037.172,3.147,3.147,0,0,1,1.033.549,3.008,3.008,0,0,1,.8.983,3.169,3.169,0,0,1,.317,1.482v.493a5.392,5.392,0,0,1-.232,1.5,4.973,4.973,0,0,1-.745,1.516,4.679,4.679,0,0,1,.831.655,4.207,4.207,0,0,1,.68.887,4.67,4.67,0,0,1,.463,1.139,5.359,5.359,0,0,1,.172,1.4Zm-2.62-.5a2.5,2.5,0,0,0-.161-.923,2.035,2.035,0,0,0-.454-.7,1.975,1.975,0,0,0-.7-.448,2.634,2.634,0,0,0-.927-.156h-5.905v-2.639h4.726a2.633,2.633,0,0,0,.927-.156,1.932,1.932,0,0,0,1.153-1.149,2.565,2.565,0,0,0,.156-.923v-.493c0-.377-.18-.565-.543-.565h-7.467v9.209h8.645a1.57,1.57,0,0,0,.172-.01.4.4,0,0,0,.182-.06.4.4,0,0,0,.14-.172.75.75,0,0,0,.06-.332Z" transform="translate(-246.799 -234.557)" fill="#21244e"/>
        <path id="Path_4" data-name="Path 4" d="M284.313,249.007h-2.62v-14.45h2.62Z" transform="translate(-265.367 -234.557)" fill="#21244e"/>
        <path id="Path_5" data-name="Path 5" d="M307,247.688a1.339,1.339,0,0,1-.1.523,1.275,1.275,0,0,1-.277.418,1.3,1.3,0,0,1-.419.278,1.349,1.349,0,0,1-.524.1h-9.451a3.9,3.9,0,0,1-.781-.086,4.078,4.078,0,0,1-.827-.267,3.876,3.876,0,0,1-.781-.468,3.19,3.19,0,0,1-.661-.7,3.433,3.433,0,0,1-.458-.947,3.982,3.982,0,0,1-.172-1.214v-7.095a3.879,3.879,0,0,1,.086-.781,4,4,0,0,1,.268-.827,3.673,3.673,0,0,1,.473-.781,3.267,3.267,0,0,1,.7-.659,3.411,3.411,0,0,1,.943-.458,3.932,3.932,0,0,1,1.209-.172h10.65v2.62h-10.65a1.065,1.065,0,0,0-.787.272,1.091,1.091,0,0,0-.272.805v7.075a.964.964,0,0,0,1.059,1.057h8.152V243.1h-6.973v-2.639h8.272a1.3,1.3,0,0,1,.524.1,1.317,1.317,0,0,1,.419.288,1.353,1.353,0,0,1,.277.418,1.278,1.278,0,0,1,.1.509Z" transform="translate(-271.144 -234.557)" fill="#21244e"/>
        <path id="Path_6" data-name="Path 6" d="M342.213,247.688a1.34,1.34,0,0,1-.1.523,1.243,1.243,0,0,1-.283.418,1.351,1.351,0,0,1-.424.278,1.313,1.313,0,0,1-.513.1h-5.906a8.118,8.118,0,0,1-1.693-.182,7.523,7.523,0,0,1-1.658-.559,7.128,7.128,0,0,1-1.506-.962,6.3,6.3,0,0,1-1.235-1.386,6.762,6.762,0,0,1-.831-1.834,8.156,8.156,0,0,1-.3-2.3v-7.225h2.621v7.225a5.038,5.038,0,0,0,.306,1.874,4.131,4.131,0,0,0,.781,1.28,3.764,3.764,0,0,0,1.039.807,5.633,5.633,0,0,0,1.073.434,5.333,5.333,0,0,0,.9.176c.258.023.429.035.509.035h4.6v-11.83h2.621Z" transform="translate(-289.883 -234.557)" fill="#21244e"/>
        <path id="Path_7" data-name="Path 7" d="M378.138,249.007h-2.62V245.46h-9.209v3.547h-2.62v-7.225a7.624,7.624,0,0,1,.545-2.912,6.731,6.731,0,0,1,3.8-3.778,7.589,7.589,0,0,1,2.881-.535h5.905a1.325,1.325,0,0,1,.514.1,1.309,1.309,0,0,1,.805,1.219Zm-11.829-6.168h9.209v-5.662h-4.6c-.081,0-.251.012-.509.035a5.327,5.327,0,0,0-.9.176,5.636,5.636,0,0,0-1.073.434,3.784,3.784,0,0,0-1.039.805,4.167,4.167,0,0,0-.781,1.285,5.057,5.057,0,0,0-.306,1.87Z" transform="translate(-309 -234.557)" fill="#21244e"/>
        <path id="Path_8" data-name="Path 8" d="M414.635,239.414a5.331,5.331,0,0,1-.222,1.6,4.481,4.481,0,0,1-.6,1.245,4.248,4.248,0,0,1-.872.923,5.28,5.28,0,0,1-1.032.629,5.054,5.054,0,0,1-1.089.358,5.2,5.2,0,0,1-1.033.11l5.471,4.727h-4.05l-5.461-4.727h-1.885v-2.619h5.925a3,3,0,0,0,.9-.208,2.223,2.223,0,0,0,.706-.449,1.916,1.916,0,0,0,.458-.679,2.422,2.422,0,0,0,.16-.913v-1.652a.829.829,0,0,0-.054-.338.388.388,0,0,0-.322-.236,1.525,1.525,0,0,0-.176-.01h-8.646v11.83H400.2V235.877a1.315,1.315,0,0,1,.1-.513,1.351,1.351,0,0,1,.278-.424,1.247,1.247,0,0,1,.418-.282,1.339,1.339,0,0,1,.523-.1h9.947a3.15,3.15,0,0,1,1.48.318,3.007,3.007,0,0,1,.983.8,3.084,3.084,0,0,1,.545,1.033,3.634,3.634,0,0,1,.166,1.039Z" transform="translate(-328.427 -234.557)" fill="#21244e"/>
        <path id="Path_9" data-name="Path 9" d="M450.2,242.961a6.308,6.308,0,0,1-.458,2.429,5.682,5.682,0,0,1-3.179,3.163,6.3,6.3,0,0,1-2.408.454h-7.075a1.338,1.338,0,0,1-.523-.1,1.27,1.27,0,0,1-.7-.7,1.339,1.339,0,0,1-.1-.523V235.877a1.315,1.315,0,0,1,.1-.513,1.352,1.352,0,0,1,.278-.424,1.247,1.247,0,0,1,.418-.282,1.339,1.339,0,0,1,.523-.1h7.075a6.3,6.3,0,0,1,2.408.453,5.676,5.676,0,0,1,3.179,3.171,6.311,6.311,0,0,1,.458,2.423Zm-2.62-2.358a3.839,3.839,0,0,0-.246-1.4,3.075,3.075,0,0,0-.7-1.083,3.171,3.171,0,0,0-1.083-.695,3.791,3.791,0,0,0-1.4-.247h-5.774v9.209h5.774a3.791,3.791,0,0,0,1.4-.247,3.17,3.17,0,0,0,1.083-.695,3.083,3.083,0,0,0,.7-1.079,3.817,3.817,0,0,0,.246-1.405Z" transform="translate(-347.35 -234.557)" fill="#21244e"/>
      </g>
    </g>
  </g>
</svg>
