<svg xmlns="http://www.w3.org/2000/svg" width="39.589" height="38.845" viewBox="0 0 39.589 38.845">
  <g id="megaphone_1_" data-name="megaphone (1)" transform="translate(12.255 -4.659) rotate(21)">
    <path id="Path_2264" data-name="Path 2264" d="M1.888,4.257,4.257,1.888A1.106,1.106,0,0,0,2.693.324L.324,2.693A1.106,1.106,0,0,0,1.888,4.257Z" transform="translate(26.062 3.554)" fill="#f0f0f0"/>
    <path id="Path_2265" data-name="Path 2265" d="M3.475,0H1.106a1.106,1.106,0,0,0,0,2.212H3.475A1.106,1.106,0,0,0,3.475,0Z" transform="translate(29.616 13.031)" fill="#f0f0f0"/>
    <path id="Path_2266" data-name="Path 2266" d="M1.106,4.581A1.106,1.106,0,0,0,2.212,3.475V1.106A1.106,1.106,0,1,0,0,1.106V3.475A1.106,1.106,0,0,0,1.106,4.581Z" transform="translate(18.954 0)" fill="#f0f0f0"/>
    <path id="Path_2267" data-name="Path 2267" d="M.324,1.853a1.106,1.106,0,0,0,0,1.564L5.062,8.156a1.106,1.106,0,0,0,1.564,0L8.48,6.3,2.177,0Z" transform="translate(0 25.717)" fill="#f0f0f0"/>
    <path id="Path_2268" data-name="Path 2268" d="M7.766,0,0,3.655,5.309,8.964a1.106,1.106,0,0,0,1.564,0l4.146-4.146a1.106,1.106,0,0,0,0-1.564Z" transform="translate(11.706 28.464)" fill="#f0f0f0"/>
    <path id="Path_2269" data-name="Path 2269" d="M11.178.324A1.106,1.106,0,0,0,9.395.635L0,20.6l6.3,6.3,19.964-9.395a1.106,1.106,0,0,0,.311-1.783Z" transform="translate(3.741 3.554)" fill="#f0f0f0"/>
  </g>
</svg>
