<svg id="Group_1652" data-name="Group 1652" xmlns="http://www.w3.org/2000/svg" width="38.384" height="45.762" viewBox="0 0 38.384 45.762">
  <g id="Layer_x0020_1" transform="translate(0 0)">
    <g id="_218130528" transform="translate(0 0)">
      <path id="_218133720" d="M42.26,10.837A38.166,38.166,0,0,1,23.19,21.471c-1.5,31.9,11.292,28.015,19.07,35.129,7.778-7.114,20.574-3.224,19.07-35.129A38.166,38.166,0,0,1,42.26,10.837Z" transform="translate(-23.068 -10.837)" fill="#f0f0f0" fill-rule="evenodd"/>
    </g>
  </g>
  <g id="Group_1614" data-name="Group 1614" transform="translate(11.245 13.078)">
    <path id="Path_2133" data-name="Path 2133" d="M130.743,170.724a7.947,7.947,0,0,0,7.947-7.947s.062-3.474-3.357-7.541a.493.493,0,0,0-.725-.032l-.389.389a.492.492,0,0,1-.778-.11l-2.267-4.11a.492.492,0,0,0-.861,0l-2.267,4.11a.492.492,0,0,1-.778.11l-.389-.389a.493.493,0,0,0-.725.032c-3.419,4.066-3.357,7.541-3.357,7.541A7.947,7.947,0,0,0,130.743,170.724Z" transform="translate(-122.796 -151.119)" fill="#508adf"/>
  </g>
</svg>
