<svg xmlns="http://www.w3.org/2000/svg" xmlns:xlink="http://www.w3.org/1999/xlink" width="21" height="21" viewBox="0 0 21 21">
  <defs>
    <linearGradient id="linear-gradient" x1="0.119" y1="0.881" x2="0.83" y2="0.17" gradientUnits="objectBoundingBox">
      <stop offset="0" stop-color="#fee411"/>
      <stop offset="0.052" stop-color="#fedb16"/>
      <stop offset="0.138" stop-color="#fec125"/>
      <stop offset="0.248" stop-color="#fe983d"/>
      <stop offset="0.376" stop-color="#fe5f5e"/>
      <stop offset="0.5" stop-color="#fe2181"/>
      <stop offset="1" stop-color="#9000dc"/>
    </linearGradient>
  </defs>
  <g id="Group_1443" data-name="Group 1443" transform="translate(0.302 -0.144)">
    <circle id="Ellipse_49" data-name="Ellipse 49" cx="10.5" cy="10.5" r="10.5" transform="translate(-0.302 0.144)" fill="#508adf"/>
    <g id="instagram_6_" data-name="instagram (6)" transform="translate(0.031 1.744)">
      <circle id="Ellipse_23" data-name="Ellipse 23" cx="8.5" cy="8.5" r="8.5" transform="translate(1.666 0.4)" fill="url(#linear-gradient)"/>
    </g>
    <g id="Group_1640" data-name="Group 1640" transform="translate(5.677 6.124)">
      <path id="Path_1973" data-name="Path 1973" d="M137.347,131h-3.454a2.794,2.794,0,0,0-2.792,2.792v3.454a2.794,2.794,0,0,0,2.792,2.792h3.454a2.794,2.794,0,0,0,2.792-2.792v-3.454A2.794,2.794,0,0,0,137.347,131Zm1.783,6.25a1.788,1.788,0,0,1-1.787,1.787h-3.454a1.788,1.788,0,0,1-1.787-1.787V133.8a1.788,1.788,0,0,1,1.787-1.787h3.454a1.788,1.788,0,0,1,1.787,1.787Z" transform="translate(-131.1 -131)" fill="#fff"/>
      <path id="Path_1974" data-name="Path 1974" d="M194.411,192.1a2.311,2.311,0,1,0,2.311,2.311A2.316,2.316,0,0,0,194.411,192.1Zm0,3.715a1.4,1.4,0,1,1,1.4-1.4A1.4,1.4,0,0,1,194.411,195.815Z" transform="translate(-189.894 -189.89)" fill="#fff"/>
      <circle id="Ellipse_24" data-name="Ellipse 24" cx="0.391" cy="0.391" r="0.391" transform="matrix(0.987, -0.16, 0.16, 0.987, 6.495, 1.755)" fill="#fff"/>
    </g>
  </g>
</svg>
