<svg xmlns="http://www.w3.org/2000/svg" xmlns:xlink="http://www.w3.org/1999/xlink" width="21" height="21" viewBox="0 0 21 21">
  <defs>
    <linearGradient id="linear-gradient" y1="0.5" x2="1" y2="0.5" gradientUnits="objectBoundingBox">
      <stop offset="0" stop-color="#3c87d1"/>
      <stop offset="0.201" stop-color="#377cc9"/>
      <stop offset="0.561" stop-color="#2b5db3"/>
      <stop offset="0.994" stop-color="#193092"/>
    </linearGradient>
    <radialGradient id="radial-gradient" cx="0.5" cy="0.5" r="0.841" gradientUnits="objectBoundingBox">
      <stop offset="0"/>
      <stop offset="1" stop-color="#fff" stop-opacity="0"/>
    </radialGradient>
  </defs>
  <g id="Group_1443" data-name="Group 1443" transform="translate(0.302 -0.144)">
    <circle id="Ellipse_49" data-name="Ellipse 49" cx="10.5" cy="10.5" r="10.5" transform="translate(-0.302 0.144)" fill="#fff"/>
    <g id="facebook" transform="translate(1.798 2.244)" style="mix-blend-mode: normal;isolation: isolate">
      <g id="Layer_1" data-name="Layer 1" transform="translate(0 0)">
        <circle id="Ellipse_50" data-name="Ellipse 50" cx="8.5" cy="8.5" r="8.5" transform="translate(-0.1 -0.101)" fill="url(#linear-gradient)"/>
        <path id="Path_2086" data-name="Path 2086" d="M180,101.243h1.476v1.763h-1.009c-.785,0-.953.371-.953.928v1.206H181.4v1.892h-1.887v4.861h-1.962v-4.861h-1.644V105.14h1.644v-1.392a2.289,2.289,0,0,1,2.447-2.5Z" transform="translate(-170.255 -98.273)" fill="#fff" fill-rule="evenodd"/>
        <path id="Path_2087" data-name="Path 2087" d="M59.527,165.171a7.931,7.931,0,0,1,.089,1.188,8.17,8.17,0,0,1-8.271,8.065,8.336,8.336,0,0,1-6.413-2.972,7.944,7.944,0,0,0,14.594-6.28Z" transform="translate(-43.785 -160.001)" fill="url(#radial-gradient)" style="mix-blend-mode: multiply;isolation: isolate"/>
      </g>
    </g>
  </g>
</svg>
